<svg width="128" height="146" viewBox="0 0 128 146" fill="none" xmlns="http://www.w3.org/2000/svg">
<path d="M54.4433 0C44.4621 0 36.2956 8.1665 36.2956 18.1478H18.1478C8.1665 18.1478 0 26.3143 0 36.2956H127.034C127.034 26.3143 118.868 18.1478 108.887 18.1478H90.7389C90.7389 8.1665 82.5724 0 72.5911 0H54.4433ZM18.1478 54.4433V141.734C18.1478 143.73 19.5996 145.182 21.5959 145.182H105.62C107.616 145.182 109.068 143.73 109.068 141.734V54.4433H90.9204V117.961C90.9204 123.042 86.9279 127.034 81.8465 127.034C76.7651 127.034 72.7726 123.042 72.7726 117.961V54.4433H54.6248V117.961C54.6248 123.042 50.6323 127.034 45.5509 127.034C40.4696 127.034 36.477 123.042 36.477 117.961V54.4433H18.3293H18.1478Z" fill="white"/>
</svg>
